<?xml version="1.0" encoding="utf-8"?>
<!-- Generator: Adobe Illustrator 22.0.1, SVG Export Plug-In . SVG Version: 6.00 Build 0)  -->
<svg version="1.1" id="Calque_1" xmlns="http://www.w3.org/2000/svg" xmlns:xlink="http://www.w3.org/1999/xlink" x="0px" y="0px"
	 viewBox="0 0 1366 68.3" style="enable-background:new 0 0 1366 68.3;" xml:space="preserve">
<style type="text/css">
	.st0{fill:#333333;}
</style>
<g>
	<path class="st0" d="M55.3,39.6l4.4,2.1C59.6,40.8,58.5,39.9,55.3,39.6z"/>
	<path class="st0" d="M1159.6,38.9c0.3-0.2,0.7-0.3,1-0.5C1159.9,38.6,1159.7,38.7,1159.6,38.9z"/>
	<path class="st0" d="M224.8,110.2c-0.1,0-0.2,0-0.2,0c-0.4,0.2-0.8,0.3-1.1,0.5L224.8,110.2z"/>
	<path class="st0" d="M2.3,104.5c58.4,2.5,73.9,12.3,134.4,8.3c28.9,0.8,59.7-1.5,87.9-2.6c13.4-7.6,37.1-0.1,52.9-6.5l6.1,4.3
		c5.5-2.2,11.9-3.7,17.4-1.3l-0.3,1.3c8.2-3.3,17.4-1.3,21.4-3l-0.3,1.3l9.9-0.6l-1.7,1.8c14.2-3.5,28.9-3.7,41.8-2.1l-1.1-5.2
		c27.6,5.8,37.7-5,62.7,1.9l-0.3,1.3c31.5-13.8,49.8,9.4,82.3-3.7c-4.1,1.6,1.7,2.7,1.4,4c15-1.5,30.9-2.3,31.2-12.5
		c10.9,0.1,8.9,3.2,10.3,7.2c-0.1-4.5,9.4-6.4,17.9-6.6l-3.9,1.7l24.4-1.5l-4.8-8.5c12.9,2.4,3.3,10.4,15.7,8.3l-0.2-7
		c17.9,1.4,28.4,12,45.7,17.2c72,3,149.3-14.9,216.3-2.5l3,5.3c1.3,7.7,18.5-11.4,21-4.3l7.8-3.5c2.2,1.4,6.8,2.9,2.9,4.6
		c7.2,0.3,7.4-1,12.6-3.3l7.7,4.8c28.4,3.7,52.6-5.5,82.5-3.7c35.9,9.8,103.6,0.8,142.5-4.4c54.8-11.5,118.5,19.2,174.6,6
		c1.8,1.1,6.5-1.4,6.5-2.2l51.3,1.1c0,0,248.9,3,59.8-61l1.3-1.7c-28.1-4.1-45.8-5-65.1,3.5c-3.1-10.4-23.1-1.1-29.7-4.4l0.6-0.8
		c-17.1,8-35.3-6.6-51.8,0.5c0.6-0.8,1-3.7,4.8-3.8c-12,1.3-28.5,3.6-29.4-2.4c-28.7,1.6-68.9-1.2-87.3,8.4l1.3-1.7
		c-10.5,6.5-13.6,1-25.3,4.3c-0.6-0.8-1.5-1.2-1.3-1.5c-11.4,6.4-33.4,1-42.6,3.7l-0.6-4l-22.8,0.9l8.5,0.9
		c-2.9,11-17.2-6.9-33.7,0.2c-15.5-1.4-31.3,22.9-47.4,17.5c-7.7,5.2,6.7-8.4-4.7-4.4c-0.4-5.7,5.3-3.6,2.4-8.2
		c-11.2,2.7-18.4-5.9-32.3-2l-0.6-4.5c-18.1,8.2-34.1-5.9-46.1,1.9c-18.6,3.7-12.5-13.3-31.9-4.5l-7.5-6.1c-8.3-1-5.9,7.4-15.2,4.5
		c0.6-3.8-11.6-3-6.2-6.7c-20.8-6-42.3,8.5-69.8-1.6c-6,7.4-19.8,3-24.2,8.6c-0.7-3.2-27.7-0.5-12.2-7.5c1.3-0.6,3.7-0.5,3.5,0.8
		l1.9-4.4c-15.7-8.3-28.4,4.6-43.9,3.3c4.6,1.5,10.7,1.1,6.6,4.1l-14.4-0.6l3-3.7l-21.4-2.2l3,4.6c-10.5-2.4-14.2-10.2-26-3.6
		c-5.4,3.6,9.9,6.2-1.1,7.6c-14-3.1-35-7.8-52.9-9.2c1.7,5.2-3.1,5-8.1,6l-0.6-4.5c-19,6.2-7-9.9-25.8-4.9l1.7-3.1l-5,9.4
		c-17,8.9-9.2-9.3-28.1,2.8c7.5-0.8,3.5,9.9-5.7,7.9l2.3-4.3c-5.1,0.9-6.8,2.7-10.2,1.8c3-2.3,1.6-6.3-5.9-5.6l5-5.4l-14.2,8
		c-10.9-4.6-28.3,1.2-32.7-4.9c0,0-23.5-3-28.9,3.7c4.7-4.1-8.2-5.7-4.5-10.6c-6.1,4.7-24.1,8.5-31.3,3.5l1.4-0.6
		c-26.6-5.1-45.5,7-69.4,0.8c1.1,5.2-11.5,2.4-8.4,9c-24.7,6.6-45.1-13.5-54,7c-11.2,1.1-13.3-4.8-19.1-5.9l2.7-1.1
		c-21.1,1.7-27.2,1.9-42.8,1.4c-7.8,2-9,11.5-23,9.2c4.5-3.8-1.2-3.1-6.4-3.1c3.3-0.6,4.4-2-2.5-4.5c-1,1.2-2.5,1.9-3.9,2.5
		c-0.1-0.3-0.3-0.5-0.2-0.9c-8.7,1.3-7.2,2.5-3.2,3c-0.2,0.6,0.1,1.3,1.4,2.4c-9.1-4.9-25.3,0.3-26.4-6.2
		c-26.3,1.5-45.1,8.2-66.9,10.8c-2.5-3.4,2.7-6.3,9-7.6l-15.5,1.2c0.1-4.8,8.9-2.8,13.7-3.7c-18.5-7.8-38.1,7.8-59.8,0.6l-4.5,3.8
		l-1.3-0.6c0.1,2-4.8,4.8-8,5.4c-3.1-4.2,0.2-9.7-10.5-9.4c-8.5-4.1-24.1,2-35.2,4.3c6,0.7,4.1,3,1.5,4.5C2,46.7-1.1,42.5-5.2,44.3
		l-0.5-5.7c2.1,5.3-14,5.8-16,8.1c-3.1-4.2,8.3-3.6,9.7-6.8c-21.5,0.5-10.8,0.3-32.3,0.8C-55.8,45-42.2,46-47.7,51
		c-10.1,1.1-20,5.1-31.6,1.7l3.7,5c-19,3.9-30.4,3.3-43.2-1.8c-141.8,41-29.9,56-29.9,56C-93,123.1-64.1,108.4,2.3,104.5z"/>
</g>
</svg>
