<?xml version="1.0" encoding="utf-8"?>
<!-- Generator: Adobe Illustrator 22.0.1, SVG Export Plug-In . SVG Version: 6.00 Build 0)  -->
<svg version="1.1" id="Capa_1" xmlns="http://www.w3.org/2000/svg" xmlns:xlink="http://www.w3.org/1999/xlink" x="0px" y="0px"
	 viewBox="0 0 3226.7 886.8" style="enable-background:new 0 0 3226.7 886.8;" xml:space="preserve">
<style type="text/css">
	.st0{fill:#BDC3C7;}
	.st1{fill:#ECF0F1;}
	.st2{fill:#88C057;}
	.st3{fill:#6C9941;}
	.st4{fill:#805333;}
	.st5{fill:#4C6D29;}
	.st6{opacity:0.32;fill:#BDC3C7;enable-background:new    ;}
	.st7{opacity:0.62;fill:#BDC3C7;enable-background:new    ;}
	.st8{opacity:0.25;fill:#2EB3FF;enable-background:new    ;}
	.st9{opacity:0.15;fill:#BDC3C7;enable-background:new    ;}
	.st10{opacity:0.42;fill:#BDC3C7;enable-background:new    ;}
</style>
<g>
	<g>
		<path class="st0" d="M2274.6,727.4c-2,0-4.1-0.7-5.7-2.2c-3.5-3.2-3.7-8.6-0.6-12.1l85.3-93.9c1.6-1.7,3.8-2.7,6.1-2.8
			c2.5-0.1,4.6,0.9,6.2,2.5l34.1,34.1c3.3,3.3,3.3,8.7,0,12.1c-3.3,3.3-8.7,3.3-12.1,0l-27.8-27.8l-79.3,87.2
			C2279.3,726.4,2276.9,727.4,2274.6,727.4"/>
		<path class="st0" d="M2735.4,727.4c-2.3,0-4.6-0.9-6.3-2.8l-79.3-87.2l-27.8,27.8c-3.3,3.3-8.7,3.3-12.1,0
			c-3.3-3.3-3.3-8.7,0-12.1l34.1-34.1c1.6-1.6,3.8-2.6,6.2-2.5c2.3,0.1,4.5,1.1,6.1,2.8l85.3,93.9c3.2,3.5,2.9,8.9-0.6,12.1
			C2739.5,726.6,2737.5,727.4,2735.4,727.4"/>
	</g>
	<polygon class="st1" points="2505,522.6 2256,839.7 2764.7,848.7 	"/>
	<polygon class="st2" points="2547.7,582.3 2550.2,579.8 2505,522.6 2460.3,579.2 2462.4,582.3 2496.5,599.4 2522.1,582.3 	"/>
</g>
<polygon class="st1" points="367.2,397 274.9,573.3 128.3,849.3 595.3,839.7 "/>
<path class="st3" d="M213.6,678.6c0,42.4-34.4,76.8-76.8,76.8S60,721,60,678.6s34.4-76.8,76.8-76.8S213.6,636.2,213.6,678.6"/>
<path class="st2" d="M239.2,490.9L175.1,612c23,13.3,38.6,38.1,38.6,66.6c0,34.8-23.2,64.2-55,73.6c-1.6,1.1-11.7,2.2-13.3,3.2
	h100.2h107.9L239.2,490.9z"/>
<g>
	<path class="st4" d="M136.8,738.3c-2.2,0-4.4-0.8-6-2.5l-25.6-25.6c-3.3-3.3-3.3-8.7,0-12.1c3.3-3.3,8.7-3.3,12.1,0l25.6,25.6
		c3.3,3.3,3.3,8.7,0,12.1C141.2,737.5,139,738.3,136.8,738.3"/>
	<path class="st4" d="M136.8,738.3c-2.2,0-4.4-0.8-6-2.5c-3.3-3.3-3.3-8.7,0-12.1l25.6-25.6c3.3-3.3,8.7-3.3,12.1,0
		c3.3,3.3,3.3,8.7,0,12.1l-25.6,25.6C141.2,737.5,139,738.3,136.8,738.3"/>
	<path class="st4" d="M136.8,857.8c-4.7,0-8.5-3.8-8.5-8.5V729.8c0-4.7,3.8-8.5,8.5-8.5s8.5,3.8,8.5,8.5v119.5
		C145.4,854,141.6,857.8,136.8,857.8"/>
	<path class="st4" d="M247.8,738.3c-2.2,0-4.4-0.8-6-2.5l-17.1-17.1c-3.3-3.3-3.3-8.7,0-12.1c3.3-3.3,8.7-3.3,12.1,0l17.1,17.1
		c3.3,3.3,3.3,8.7,0,12.1C252.1,737.5,250,738.3,247.8,738.3"/>
	<path class="st4" d="M247.8,738.3c-2.2,0-4.4-0.8-6-2.5c-3.3-3.3-3.3-8.7,0-12.1l17.1-17.1c3.3-3.3,8.7-3.3,12.1,0
		c3.3,3.3,3.3,8.7,0,12.1l-17.1,17.1C252.1,737.5,250,738.3,247.8,738.3"/>
	<path class="st4" d="M247.8,857.8c-4.7,0-8.5-3.8-8.5-8.5V729.8c0-4.7,3.8-8.5,8.5-8.5s8.5,3.8,8.5,8.5v119.5
		C256.3,854,252.5,857.8,247.8,857.8"/>
	<polygon class="st4" points="333.1,533.5 350.2,516.5 367.2,533.5 384.3,516.5 401.4,533.5 425.9,509 367.2,397 308.6,509 	"/>
</g>
<g>
	<g>
		<path class="st2" d="M555,856.8c-4.7,0-8.5-3.8-8.5-8.5v-8.5c0-4.7,3.8-8.5,8.5-8.5s8.5,3.8,8.5,8.5v8.5
			C563.5,853,559.7,856.8,555,856.8"/>
		<path class="st2" d="M520.8,856.8c-4.7,0-8.5-3.8-8.5-8.5v-8.5c0-4.7,3.8-8.5,8.5-8.5s8.5,3.8,8.5,8.5v8.5
			C529.4,853,525.6,856.8,520.8,856.8"/>
		<path class="st2" d="M486.7,856.8c-4.7,0-8.5-3.8-8.5-8.5v-8.5c0-4.7,3.8-8.5,8.5-8.5s8.5,3.8,8.5,8.5v8.5
			C495.2,853,491.4,856.8,486.7,856.8"/>
		<path class="st2" d="M452.6,856.8c-4.7,0-8.5-3.8-8.5-8.5v-8.5c0-4.7,3.8-8.5,8.5-8.5s8.5,3.8,8.5,8.5v8.5
			C461.1,853,457.3,856.8,452.6,856.8"/>
		<path class="st2" d="M418.4,856.8c-4.7,0-8.5-3.8-8.5-8.5v-8.5c0-4.7,3.8-8.5,8.5-8.5s8.5,3.8,8.5,8.5v8.5
			C427,853,423.2,856.8,418.4,856.8"/>
		<path class="st2" d="M384.3,856.8c-4.7,0-8.5-3.8-8.5-8.5v-8.5c0-4.7,3.8-8.5,8.5-8.5s8.5,3.8,8.5,8.5v8.5
			C392.8,853,389,856.8,384.3,856.8"/>
		<path class="st2" d="M350.2,856.8c-4.7,0-8.5-3.8-8.5-8.5v-8.5c0-4.7,3.8-8.5,8.5-8.5s8.5,3.8,8.5,8.5v8.5
			C358.7,853,354.9,856.8,350.2,856.8"/>
		<path class="st2" d="M316,856.8c-4.7,0-8.5-3.8-8.5-8.5v-8.5c0-4.7,3.8-8.5,8.5-8.5s8.5,3.8,8.5,8.5v8.5
			C324.6,853,320.8,856.8,316,856.8"/>
		<path class="st2" d="M281.9,856.8c-4.7,0-8.5-3.8-8.5-8.5v-8.5c0-4.7,3.8-8.5,8.5-8.5s8.5,3.8,8.5,8.5v8.5
			C290.4,853,286.6,856.8,281.9,856.8"/>
		<path class="st2" d="M213.6,856.8c-4.7,0-8.5-3.8-8.5-8.5v-8.5c0-4.7,3.8-8.5,8.5-8.5s8.5,3.8,8.5,8.5v8.5
			C222.2,853,218.4,856.8,213.6,856.8"/>
		<path class="st2" d="M171,856.8c-4.7,0-8.5-3.8-8.5-8.5v-8.5c0-4.7,3.8-8.5,8.5-8.5s8.5,3.8,8.5,8.5v8.5
			C179.5,853,175.7,856.8,171,856.8"/>
		<path class="st2" d="M94.2,856.8c-4.7,0-8.5-3.8-8.5-8.5v-8.5c0-4.7,3.8-8.5,8.5-8.5s8.5,3.8,8.5,8.5v8.5
			C102.7,853,98.9,856.8,94.2,856.8"/>
		<path class="st2" d="M60,856.8c-4.7,0-8.5-3.8-8.5-8.5v-8.5c0-4.7,3.8-8.5,8.5-8.5s8.5,3.8,8.5,8.5v8.5
			C68.6,853,64.8,856.8,60,856.8"/>
	</g>
	<g>
		<path class="st2" d="M859.8,856.8c-4.7,0-8.5-3.8-8.5-8.5v-8.5c0-4.7,3.8-8.5,8.5-8.5s8.5,3.8,8.5,8.5v8.5
			C868.3,853,864.5,856.8,859.8,856.8"/>
		<path class="st2" d="M825.7,856.8c-4.7,0-8.5-3.8-8.5-8.5v-8.5c0-4.7,3.8-8.5,8.5-8.5s8.5,3.8,8.5,8.5v8.5
			C834.2,853,830.4,856.8,825.7,856.8"/>
		<path class="st2" d="M791.5,856.8c-4.7,0-8.5-3.8-8.5-8.5v-8.5c0-4.7,3.8-8.5,8.5-8.5s8.5,3.8,8.5,8.5v8.5
			C800.1,853,796.3,856.8,791.5,856.8"/>
		<path class="st2" d="M757.4,856.8c-4.7,0-8.5-3.8-8.5-8.5v-8.5c0-4.7,3.8-8.5,8.5-8.5s8.5,3.8,8.5,8.5v8.5
			C765.9,853,762.1,856.8,757.4,856.8"/>
		<path class="st2" d="M723.3,856.8c-4.7,0-8.5-3.8-8.5-8.5v-8.5c0-4.7,3.8-8.5,8.5-8.5s8.5,3.8,8.5,8.5v8.5
			C731.8,853,728,856.8,723.3,856.8"/>
		<path class="st2" d="M689.1,856.8c-4.7,0-8.5-3.8-8.5-8.5v-8.5c0-4.7,3.8-8.5,8.5-8.5s8.5,3.8,8.5,8.5v8.5
			C697.7,853,693.9,856.8,689.1,856.8"/>
		<path class="st2" d="M655,856.8c-4.7,0-8.5-3.8-8.5-8.5v-8.5c0-4.7,3.8-8.5,8.5-8.5s8.5,3.8,8.5,8.5v8.5
			C663.5,853,659.7,856.8,655,856.8"/>
		<path class="st2" d="M620.9,856.8c-4.7,0-8.5-3.8-8.5-8.5v-8.5c0-4.7,3.8-8.5,8.5-8.5s8.5,3.8,8.5,8.5v8.5
			C629.4,853,625.6,856.8,620.9,856.8"/>
		<path class="st2" d="M586.7,856.8c-4.7,0-8.5-3.8-8.5-8.5v-8.5c0-4.7,3.8-8.5,8.5-8.5s8.5,3.8,8.5,8.5v8.5
			C595.3,853,591.5,856.8,586.7,856.8"/>
	</g>
	<g>
		<path class="st2" d="M1164.7,856.8c-4.7,0-8.5-3.8-8.5-8.5v-8.5c0-4.7,3.8-8.5,8.5-8.5s8.5,3.8,8.5,8.5v8.5
			C1173.2,853,1169.4,856.8,1164.7,856.8"/>
		<path class="st2" d="M1130.5,856.8c-4.7,0-8.5-3.8-8.5-8.5v-8.5c0-4.7,3.8-8.5,8.5-8.5s8.5,3.8,8.5,8.5v8.5
			C1139.1,853,1135.2,856.8,1130.5,856.8"/>
		<path class="st2" d="M1096.4,856.8c-4.7,0-8.5-3.8-8.5-8.5v-8.5c0-4.7,3.8-8.5,8.5-8.5s8.5,3.8,8.5,8.5v8.5
			C1104.9,853,1101.1,856.8,1096.4,856.8"/>
		<path class="st2" d="M1062.3,856.8c-4.7,0-8.5-3.8-8.5-8.5v-8.5c0-4.7,3.8-8.5,8.5-8.5s8.5,3.8,8.5,8.5v8.5
			C1070.8,853,1067,856.8,1062.3,856.8"/>
		<path class="st2" d="M1028.1,856.8c-4.7,0-8.5-3.8-8.5-8.5v-8.5c0-4.7,3.8-8.5,8.5-8.5c4.7,0,8.5,3.8,8.5,8.5v8.5
			C1036.7,853,1032.8,856.8,1028.1,856.8"/>
		<path class="st2" d="M994,856.8c-4.7,0-8.5-3.8-8.5-8.5v-8.5c0-4.7,3.8-8.5,8.5-8.5s8.5,3.8,8.5,8.5v8.5
			C1002.5,853,998.7,856.8,994,856.8"/>
		<path class="st2" d="M959.9,856.8c-4.7,0-8.5-3.8-8.5-8.5v-8.5c0-4.7,3.8-8.5,8.5-8.5s8.5,3.8,8.5,8.5v8.5
			C968.4,853,964.6,856.8,959.9,856.8"/>
		<path class="st2" d="M925.7,856.8c-4.7,0-8.5-3.8-8.5-8.5v-8.5c0-4.7,3.8-8.5,8.5-8.5s8.5,3.8,8.5,8.5v8.5
			C934.3,853,930.4,856.8,925.7,856.8"/>
		<path class="st2" d="M891.6,856.8c-4.7,0-8.5-3.8-8.5-8.5v-8.5c0-4.7,3.8-8.5,8.5-8.5s8.5,3.8,8.5,8.5v8.5
			C900.1,853,896.3,856.8,891.6,856.8"/>
	</g>
	<g>
		<path class="st2" d="M1469.5,856.8c-4.7,0-8.5-3.8-8.5-8.5v-8.5c0-4.7,3.8-8.5,8.5-8.5s8.5,3.8,8.5,8.5v8.5
			C1478,853,1474.2,856.8,1469.5,856.8"/>
		<path class="st2" d="M1435.4,856.8c-4.7,0-8.5-3.8-8.5-8.5v-8.5c0-4.7,3.8-8.5,8.5-8.5s8.5,3.8,8.5,8.5v8.5
			C1443.9,853,1440.1,856.8,1435.4,856.8"/>
		<path class="st2" d="M1401.2,856.8c-4.7,0-8.5-3.8-8.5-8.5v-8.5c0-4.7,3.8-8.5,8.5-8.5s8.5,3.8,8.5,8.5v8.5
			C1409.8,853,1405.9,856.8,1401.2,856.8"/>
		<path class="st2" d="M1367.1,856.8c-4.7,0-8.5-3.8-8.5-8.5v-8.5c0-4.7,3.8-8.5,8.5-8.5s8.5,3.8,8.5,8.5v8.5
			C1375.6,853,1371.8,856.8,1367.1,856.8"/>
		<path class="st2" d="M1333,856.8c-4.7,0-8.5-3.8-8.5-8.5v-8.5c0-4.7,3.8-8.5,8.5-8.5s8.5,3.8,8.5,8.5v8.5
			C1341.5,853,1337.7,856.8,1333,856.8"/>
		<path class="st2" d="M1298.8,856.8c-4.7,0-8.5-3.8-8.5-8.5v-8.5c0-4.7,3.8-8.5,8.5-8.5s8.5,3.8,8.5,8.5v8.5
			C1307.4,853,1303.5,856.8,1298.8,856.8"/>
		<path class="st2" d="M1264.7,856.8c-4.7,0-8.5-3.8-8.5-8.5v-8.5c0-4.7,3.8-8.5,8.5-8.5s8.5,3.8,8.5,8.5v8.5
			C1273.2,853,1269.4,856.8,1264.7,856.8"/>
		<path class="st2" d="M1230.6,856.8c-4.7,0-8.5-3.8-8.5-8.5v-8.5c0-4.7,3.8-8.5,8.5-8.5s8.5,3.8,8.5,8.5v8.5
			C1239.1,853,1235.3,856.8,1230.6,856.8"/>
		<path class="st2" d="M1196.4,856.8c-4.7,0-8.5-3.8-8.5-8.5v-8.5c0-4.7,3.8-8.5,8.5-8.5s8.5,3.8,8.5,8.5v8.5
			C1205,853,1201.1,856.8,1196.4,856.8"/>
	</g>
	<g>
		<path class="st2" d="M1774.3,856.8c-4.7,0-8.5-3.8-8.5-8.5v-8.5c0-4.7,3.8-8.5,8.5-8.5s8.5,3.8,8.5,8.5v8.5
			C1782.9,853,1779,856.8,1774.3,856.8"/>
		<path class="st2" d="M1740.2,856.8c-4.7,0-8.5-3.8-8.5-8.5v-8.5c0-4.7,3.8-8.5,8.5-8.5s8.5,3.8,8.5,8.5v8.5
			C1748.7,853,1744.9,856.8,1740.2,856.8"/>
		<path class="st2" d="M1706.1,856.8c-4.7,0-8.5-3.8-8.5-8.5v-8.5c0-4.7,3.8-8.5,8.5-8.5s8.5,3.8,8.5,8.5v8.5
			C1714.6,853,1710.8,856.8,1706.1,856.8"/>
		<path class="st2" d="M1671.9,856.8c-4.7,0-8.5-3.8-8.5-8.5v-8.5c0-4.7,3.8-8.5,8.5-8.5s8.5,3.8,8.5,8.5v8.5
			C1680.5,853,1676.6,856.8,1671.9,856.8"/>
		<path class="st2" d="M1637.8,856.8c-4.7,0-8.5-3.8-8.5-8.5v-8.5c0-4.7,3.8-8.5,8.5-8.5s8.5,3.8,8.5,8.5v8.5
			C1646.3,853,1642.5,856.8,1637.8,856.8"/>
		<path class="st2" d="M1603.7,856.8c-4.7,0-8.5-3.8-8.5-8.5v-8.5c0-4.7,3.8-8.5,8.5-8.5s8.5,3.8,8.5,8.5v8.5
			C1612.2,853,1608.4,856.8,1603.7,856.8"/>
		<path class="st2" d="M1569.5,856.8c-4.7,0-8.5-3.8-8.5-8.5v-8.5c0-4.7,3.8-8.5,8.5-8.5s8.5,3.8,8.5,8.5v8.5
			C1578.1,853,1574.2,856.8,1569.5,856.8"/>
		<path class="st2" d="M1535.4,856.8c-4.7,0-8.5-3.8-8.5-8.5v-8.5c0-4.7,3.8-8.5,8.5-8.5s8.5,3.8,8.5,8.5v8.5
			C1543.9,853,1540.1,856.8,1535.4,856.8"/>
		<path class="st2" d="M1501.3,856.8c-4.7,0-8.5-3.8-8.5-8.5v-8.5c0-4.7,3.8-8.5,8.5-8.5s8.5,3.8,8.5,8.5v8.5
			C1509.8,853,1506,856.8,1501.3,856.8"/>
	</g>
	<g>
		<path class="st2" d="M2079.2,856.8c-4.7,0-8.5-3.8-8.5-8.5v-8.5c0-4.7,3.8-8.5,8.5-8.5s8.5,3.8,8.5,8.5v8.5
			C2087.7,853,2083.9,856.8,2079.2,856.8"/>
		<path class="st2" d="M2045,856.8c-4.7,0-8.5-3.8-8.5-8.5v-8.5c0-4.7,3.8-8.5,8.5-8.5c4.7,0,8.5,3.8,8.5,8.5v8.5
			C2053.6,853,2049.8,856.8,2045,856.8"/>
		<path class="st2" d="M2010.9,856.8c-4.7,0-8.5-3.8-8.5-8.5v-8.5c0-4.7,3.8-8.5,8.5-8.5s8.5,3.8,8.5,8.5v8.5
			C2019.4,853,2015.6,856.8,2010.9,856.8"/>
		<path class="st2" d="M1976.8,856.8c-4.7,0-8.5-3.8-8.5-8.5v-8.5c0-4.7,3.8-8.5,8.5-8.5s8.5,3.8,8.5,8.5v8.5
			C1985.3,853,1981.5,856.8,1976.8,856.8"/>
		<path class="st2" d="M1942.6,856.8c-4.7,0-8.5-3.8-8.5-8.5v-8.5c0-4.7,3.8-8.5,8.5-8.5s8.5,3.8,8.5,8.5v8.5
			C1951.2,853,1947.3,856.8,1942.6,856.8"/>
		<path class="st2" d="M1908.5,856.8c-4.7,0-8.5-3.8-8.5-8.5v-8.5c0-4.7,3.8-8.5,8.5-8.5s8.5,3.8,8.5,8.5v8.5
			C1917,853,1913.2,856.8,1908.5,856.8"/>
		<path class="st2" d="M1874.4,856.8c-4.7,0-8.5-3.8-8.5-8.5v-8.5c0-4.7,3.8-8.5,8.5-8.5s8.5,3.8,8.5,8.5v8.5
			C1882.9,853,1879.1,856.8,1874.4,856.8"/>
		<path class="st2" d="M1840.2,856.8c-4.7,0-8.5-3.8-8.5-8.5v-8.5c0-4.7,3.8-8.5,8.5-8.5s8.5,3.8,8.5,8.5v8.5
			C1848.8,853,1844.9,856.8,1840.2,856.8"/>
		<path class="st2" d="M1806.1,856.8c-4.7,0-8.5-3.8-8.5-8.5v-8.5c0-4.7,3.8-8.5,8.5-8.5s8.5,3.8,8.5,8.5v8.5
			C1814.6,853,1810.8,856.8,1806.1,856.8"/>
	</g>
	<g>
		<path class="st2" d="M2384,856.8c-4.7,0-8.5-3.8-8.5-8.5v-8.5c0-4.7,3.8-8.5,8.5-8.5s8.5,3.8,8.5,8.5v8.5
			C2392.5,853,2388.7,856.8,2384,856.8"/>
		<path class="st2" d="M2349.9,856.8c-4.7,0-8.5-3.8-8.5-8.5v-8.5c0-4.7,3.8-8.5,8.5-8.5s8.5,3.8,8.5,8.5v8.5
			C2358.4,853,2354.6,856.8,2349.9,856.8"/>
		<path class="st2" d="M2315.7,856.8c-4.7,0-8.5-3.8-8.5-8.5v-8.5c0-4.7,3.8-8.5,8.5-8.5s8.5,3.8,8.5,8.5v8.5
			C2324.3,853,2320.5,856.8,2315.7,856.8"/>
		<path class="st2" d="M2281.6,856.8c-4.7,0-8.5-3.8-8.5-8.5v-8.5c0-4.7,3.8-8.5,8.5-8.5s8.5,3.8,8.5,8.5v8.5
			C2290.1,853,2286.3,856.8,2281.6,856.8"/>
		<path class="st2" d="M2247.5,856.8c-4.7,0-8.5-3.8-8.5-8.5v-8.5c0-4.7,3.8-8.5,8.5-8.5s8.5,3.8,8.5,8.5v8.5
			C2256,853,2252.2,856.8,2247.5,856.8"/>
		<path class="st2" d="M2213.3,856.8c-4.7,0-8.5-3.8-8.5-8.5v-8.5c0-4.7,3.8-8.5,8.5-8.5s8.5,3.8,8.5,8.5v8.5
			C2221.9,853,2218.1,856.8,2213.3,856.8"/>
		<path class="st2" d="M2179.2,856.8c-4.7,0-8.5-3.8-8.5-8.5v-8.5c0-4.7,3.8-8.5,8.5-8.5s8.5,3.8,8.5,8.5v8.5
			C2187.7,853,2183.9,856.8,2179.2,856.8"/>
		<path class="st2" d="M2145.1,856.8c-4.7,0-8.5-3.8-8.5-8.5v-8.5c0-4.7,3.8-8.5,8.5-8.5s8.5,3.8,8.5,8.5v8.5
			C2153.6,853,2149.8,856.8,2145.1,856.8"/>
		<path class="st2" d="M2110.9,856.8c-4.7,0-8.5-3.8-8.5-8.5v-8.5c0-4.7,3.8-8.5,8.5-8.5s8.5,3.8,8.5,8.5v8.5
			C2119.5,853,2115.7,856.8,2110.9,856.8"/>
	</g>
	<path class="st2" d="M2419.6,857.2c-4.7,0-8.5-3.8-8.5-8.5v-8.5c0-4.7,3.8-8.5,8.5-8.5s8.5,3.8,8.5,8.5v8.5
		C2428.1,853.4,2424.3,857.2,2419.6,857.2"/>
	<g>
		<path class="st2" d="M2724.4,857.2c-4.7,0-8.5-3.8-8.5-8.5v-8.5c0-4.7,3.8-8.5,8.5-8.5s8.5,3.8,8.5,8.5v8.5
			C2732.9,853.4,2729.1,857.2,2724.4,857.2"/>
		<path class="st2" d="M2690.3,857.2c-4.7,0-8.5-3.8-8.5-8.5v-8.5c0-4.7,3.8-8.5,8.5-8.5s8.5,3.8,8.5,8.5v8.5
			C2698.8,853.4,2695,857.2,2690.3,857.2"/>
		<path class="st2" d="M2656.1,857.2c-4.7,0-8.5-3.8-8.5-8.5v-8.5c0-4.7,3.8-8.5,8.5-8.5s8.5,3.8,8.5,8.5v8.5
			C2664.7,853.4,2660.9,857.2,2656.1,857.2"/>
		<path class="st2" d="M2622,857.2c-4.7,0-8.5-3.8-8.5-8.5v-8.5c0-4.7,3.8-8.5,8.5-8.5s8.5,3.8,8.5,8.5v8.5
			C2630.5,853.4,2626.7,857.2,2622,857.2"/>
		<path class="st2" d="M2587.9,857.2c-4.7,0-8.5-3.8-8.5-8.5v-8.5c0-4.7,3.8-8.5,8.5-8.5s8.5,3.8,8.5,8.5v8.5
			C2596.4,853.4,2592.6,857.2,2587.9,857.2"/>
		<path class="st2" d="M2553.7,857.2c-4.7,0-8.5-3.8-8.5-8.5v-8.5c0-4.7,3.8-8.5,8.5-8.5s8.5,3.8,8.5,8.5v8.5
			C2562.3,853.4,2558.5,857.2,2553.7,857.2"/>
		<path class="st2" d="M2519.6,857.2c-4.7,0-8.5-3.8-8.5-8.5v-8.5c0-4.7,3.8-8.5,8.5-8.5s8.5,3.8,8.5,8.5v8.5
			C2528.1,853.4,2524.3,857.2,2519.6,857.2"/>
		<path class="st2" d="M2485.5,857.2c-4.7,0-8.5-3.8-8.5-8.5v-8.5c0-4.7,3.8-8.5,8.5-8.5s8.5,3.8,8.5,8.5v8.5
			C2494,853.4,2490.2,857.2,2485.5,857.2"/>
		<path class="st2" d="M2451.3,857.2c-4.7,0-8.5-3.8-8.5-8.5v-8.5c0-4.7,3.8-8.5,8.5-8.5s8.5,3.8,8.5,8.5v8.5
			C2459.9,853.4,2456.1,857.2,2451.3,857.2"/>
	</g>
	<g>
		<path class="st2" d="M3029.3,857.2c-4.7,0-8.5-3.8-8.5-8.5v-8.5c0-4.7,3.8-8.5,8.5-8.5s8.5,3.8,8.5,8.5v8.5
			C3037.8,853.4,3034,857.2,3029.3,857.2"/>
		<path class="st2" d="M2995.1,857.2c-4.7,0-8.5-3.8-8.5-8.5v-8.5c0-4.7,3.8-8.5,8.5-8.5s8.5,3.8,8.5,8.5v8.5
			C3003.7,853.4,2999.8,857.2,2995.1,857.2"/>
		<path class="st2" d="M2961,857.2c-4.7,0-8.5-3.8-8.5-8.5v-8.5c0-4.7,3.8-8.5,8.5-8.5s8.5,3.8,8.5,8.5v8.5
			C2969.5,853.4,2965.7,857.2,2961,857.2"/>
		<path class="st2" d="M2926.9,857.2c-4.7,0-8.5-3.8-8.5-8.5v-8.5c0-4.7,3.8-8.5,8.5-8.5s8.5,3.8,8.5,8.5v8.5
			C2935.4,853.4,2931.6,857.2,2926.9,857.2"/>
		<path class="st2" d="M2892.7,857.2c-4.7,0-8.5-3.8-8.5-8.5v-8.5c0-4.7,3.8-8.5,8.5-8.5s8.5,3.8,8.5,8.5v8.5
			C2901.3,853.4,2897.4,857.2,2892.7,857.2"/>
		<path class="st2" d="M2858.6,857.2c-4.7,0-8.5-3.8-8.5-8.5v-8.5c0-4.7,3.8-8.5,8.5-8.5s8.5,3.8,8.5,8.5v8.5
			C2867.1,853.4,2863.3,857.2,2858.6,857.2"/>
		<path class="st2" d="M2824.5,857.2c-4.7,0-8.5-3.8-8.5-8.5v-8.5c0-4.7,3.8-8.5,8.5-8.5s8.5,3.8,8.5,8.5v8.5
			C2833,853.4,2829.2,857.2,2824.5,857.2"/>
		<path class="st2" d="M2790.3,857.2c-4.7,0-8.5-3.8-8.5-8.5v-8.5c0-4.7,3.8-8.5,8.5-8.5s8.5,3.8,8.5,8.5v8.5
			C2798.9,853.4,2795,857.2,2790.3,857.2"/>
		<path class="st2" d="M2756.2,857.2c-4.7,0-8.5-3.8-8.5-8.5v-8.5c0-4.7,3.8-8.5,8.5-8.5s8.5,3.8,8.5,8.5v8.5
			C2764.7,853.4,2760.9,857.2,2756.2,857.2"/>
	</g>
	<g>
		<path class="st2" d="M3197.6,857.2c-4.7,0-8.5-3.8-8.5-8.5v-8.5c0-4.7,3.8-8.5,8.5-8.5s8.5,3.8,8.5,8.5v8.5
			C3206.1,853.4,3202.3,857.2,3197.6,857.2"/>
		<path class="st2" d="M3163.4,857.2c-4.7,0-8.5-3.8-8.5-8.5v-8.5c0-4.7,3.8-8.5,8.5-8.5s8.5,3.8,8.5,8.5v8.5
			C3172,853.4,3168.1,857.2,3163.4,857.2"/>
		<path class="st2" d="M3129.3,857.2c-4.7,0-8.5-3.8-8.5-8.5v-8.5c0-4.7,3.8-8.5,8.5-8.5s8.5,3.8,8.5,8.5v8.5
			C3137.8,853.4,3134,857.2,3129.3,857.2"/>
		<path class="st2" d="M3095.2,857.2c-4.7,0-8.5-3.8-8.5-8.5v-8.5c0-4.7,3.8-8.5,8.5-8.5s8.5,3.8,8.5,8.5v8.5
			C3103.7,853.4,3099.9,857.2,3095.2,857.2"/>
		<path class="st2" d="M3061,857.2c-4.7,0-8.5-3.8-8.5-8.5v-8.5c0-4.7,3.8-8.5,8.5-8.5s8.5,3.8,8.5,8.5v8.5
			C3069.6,853.4,3065.7,857.2,3061,857.2"/>
	</g>
</g>
<g>
	<polygon class="st2" points="2998.8,616 2879.3,616 2939,513.6 	"/>
	<polygon class="st2" points="2811,624.6 2725.7,624.6 2768.4,547.8 	"/>
	<polygon class="st2" points="3152.4,624.6 3067,624.6 3109.7,547.8 	"/>
</g>
<g>
	<polygon class="st4" points="2913.4,837.9 2964.6,837.9 2964.6,769.6 2913.4,769.6 	"/>
	<polygon class="st4" points="2742.8,837.9 2794,837.9 2794,744 2742.8,744 	"/>
	<polygon class="st4" points="3084.1,837.9 3135.3,837.9 3135.3,744 3084.1,744 	"/>
</g>
<polygon class="st3" points="2786.3,624.6 2750.5,624.6 2708.6,684.3 2828.1,684.3 "/>
<polygon class="st5" points="2750.5,684.3 2708.6,744 2828.1,744 2786.3,684.3 "/>
<polygon class="st3" points="2958.2,616 2919.8,616 2862.2,692.8 3015.8,692.8 "/>
<polygon class="st5" points="2960.4,692.8 2917.7,692.8 2853.7,769.6 3024.4,769.6 "/>
<polygon class="st3" points="3127.6,624.6 3091.8,624.6 3050,684.3 3169.4,684.3 "/>
<polygon class="st5" points="3091.8,684.3 3050,744 3169.4,744 3127.6,684.3 "/>
<path class="st0" d="M260.6,481.8c-4.7,0-8.5-3.8-8.5-8.5c0-9.4-7.7-17.1-17.1-17.1h-68.3c-14.1,0-25.6-11.5-25.6-25.6
	s11.5-25.6,25.6-25.6h34.1c4.7,0,8.5,3.8,8.5,8.5s-3.8,8.5-8.5,8.5h-34.1c-4.7,0-8.5,3.8-8.5,8.5s3.8,8.5,8.5,8.5H235
	c18.8,0,34.1,15.3,34.1,34.1C269.1,478,265.3,481.8,260.6,481.8"/>
<path class="st6" d="M2398.4,544c-4.7,0-8.5-3.8-8.5-8.5c0-9.4-7.7-17.1-17.1-17.1h-68.3c-14.1,0-25.6-11.5-25.6-25.6
	s11.5-25.6,25.6-25.6h34.1c4.7,0,8.5,3.8,8.5,8.5s-3.8,8.5-8.5,8.5h-34.1c-4.7,0-8.5,3.8-8.5,8.5s3.8,8.5,8.5,8.5h68.3
	c18.8,0,34.1,15.3,34.1,34.1C2406.9,540.1,2403.1,544,2398.4,544"/>
<path class="st0" d="M311.2,159.9c12.3,0,22.4,11,22.4,24.5s-13.8,20.8-26.1,20.8h-96h-3.2c-17.7,0-28.3-12-28.3-31.3s14.3-35,32-35
	c0,0,14.8-28,51.2-28c22.8,0,44.8,12.7,44.8,49.1H311.2z"/>
<path class="st7" d="M1013.5,136.7c10.2,0,18.6,9.2,18.6,20.4s-11.5,17.3-21.7,17.3h-79.7h-2.7c-14.7,0-23.5-9.9-23.5-26
	s11.9-29.1,26.6-29.1c0,0,12.3-23.3,42.5-23.3c18.9,0,37.2,10.5,37.2,40.7H1013.5z"/>
<path class="st8" d="M2050.2,120.3c14.7,0,26.7,13.2,26.7,29.3s-16.5,24.8-31.2,24.8h-114.5h-3.8c-21.1,0-33.7-14.3-33.7-37.3
	s17.1-41.8,38.2-41.8c0,0,17.6-33.4,61.1-33.4c27.2,0,53.4,15.2,53.4,58.5L2050.2,120.3z"/>
<path class="st9" d="M3074,430.8c12.2,0,22.2,10.9,22.2,24.3c0,13.4-13.7,20.6-25.9,20.6h-95h-3.2c-17.5,0-28-11.8-28-31
	c0-19.2,14.2-34.7,31.7-34.7c0,0,14.6-27.8,50.7-27.8c22.6,0,44.3,12.6,44.3,48.6H3074z"/>
<path class="st10" d="M1455.4,262.6c-12.3,0-22.4,11-22.4,24.5s13.8,20.8,26.1,20.8h96h3.2c17.7,0,28.3-12,28.3-31.3s-14.3-35-32-35
	c0,0-14.8-28-51.2-28c-22.8,0-44.8,12.7-44.8,49.1H1455.4z"/>
<path class="st10" d="M2578.8,136.6c-9.8,0-17.8,8.8-17.8,19.5s11,16.5,20.8,16.5h76.3h2.5c14.1,0,22.5-9.5,22.5-24.9
	s-11.4-27.9-25.4-27.9c0,0-11.8-22.3-40.7-22.3c-18.1,0-35.6,10.1-35.6,39L2578.8,136.6L2578.8,136.6z"/>
<path class="st8" d="M462,379.7c-7.5,0-13.7,6.7-13.7,15s8.4,12.7,16,12.7h58.7h2c10.8,0,17.3-7.3,17.3-19.1s-8.8-21.4-19.6-21.4
	c0,0-9-17.1-31.3-17.1c-13.9,0-27.4,7.8-27.4,30H462z"/>
<path class="st0" d="M499.5,533.5c-4.7,0-8.5-3.8-8.5-8.5c0-18.8,15.3-34.1,34.1-34.1h68.3c4.7,0,8.5-3.8,8.5-8.5s-3.8-8.5-8.5-8.5
	h-34.1c-4.7,0-8.5-3.8-8.5-8.5s3.8-8.5,8.5-8.5h34.1c14.1,0,25.6,11.5,25.6,25.6s-11.5,25.6-25.6,25.6h-68.3
	c-9.4,0-17.1,7.7-17.1,17.1C508,529.7,504.2,533.5,499.5,533.5"/>
<path class="st6" d="M2600.8,564.8c-4.7,0-8.5-3.8-8.5-8.5c0-18.8,15.3-34.1,34.1-34.1h68.3c4.7,0,8.5-3.8,8.5-8.5
	c0-4.7-3.8-8.5-8.5-8.5h-34.1c-4.7,0-8.5-3.8-8.5-8.5s3.8-8.5,8.5-8.5h34.1c14.1,0,25.6,11.5,25.6,25.6s-11.5,25.6-25.6,25.6h-68.3
	c-9.4,0-17.1,7.7-17.1,17.1C2609.3,561,2605.5,564.8,2600.8,564.8"/>
</svg>
