<svg id="Capa_1" data-name="Capa 1" xmlns="http://www.w3.org/2000/svg" viewBox="0 0 2281.31 274.56"><defs><style>.cls-1,.cls-2,.cls-4{fill:#bdc3c7;}.cls-2{opacity:0.32;}.cls-3{fill:#2eb3ff;opacity:0.25;}.cls-4{opacity:0.42;}</style></defs><title>bg_sky</title><path class="cls-1" d="M616.31,180.13a8.54,8.54,0,0,1-8.54-8.53,17.08,17.08,0,0,0-17.06-17.07H522.44a25.6,25.6,0,0,1,0-51.2h34.13a8.54,8.54,0,1,1,0,17.07H522.44a8.53,8.53,0,0,0,0,17.06h68.27a34.17,34.17,0,0,1,34.13,34.14,8.53,8.53,0,0,1-8.53,8.53" transform="translate(-25.6 -29.5)"/><path class="cls-2" d="M955.28,251.93a8.54,8.54,0,0,1-8.53-8.54,17.08,17.08,0,0,0-17.07-17.06H861.41a25.6,25.6,0,0,1,0-51.2h34.14a8.53,8.53,0,1,1,0,17.06H861.41a8.54,8.54,0,0,0,0,17.07h68.27a34.16,34.16,0,0,1,34.13,34.13,8.54,8.54,0,0,1-8.53,8.54" transform="translate(-25.6 -29.5)"/><path class="cls-1" d="M156.8,96.4c12.32,0,22.4,11,22.4,24.53s-13.82,20.8-26.13,20.8H53.86c-17.67,0-28.26-12-28.26-31.31s14.33-35,32-35c0,0,14.8-28,51.2-28,22.8,0,44.8,12.71,44.8,49.07Z" transform="translate(-25.6 -29.5)"/><path class="cls-1" d="M1132.69,70.22c10.23,0,18.59,9.16,18.59,20.36s-11.46,17.26-21.68,17.26h-82.34c-14.66,0-23.45-9.93-23.45-26s11.89-29.08,26.56-29.08c0,0,12.28-23.27,42.49-23.27C1111.78,29.5,1130,40,1130,70.22Z" transform="translate(-25.6 -29.5)"/><path class="cls-3" d="M1506.11,177.35c14.7,0,26.72,13.17,26.72,29.27s-16.48,24.8-31.17,24.8H1383.33c-21.08,0-33.7-14.26-33.7-37.34s17.08-41.8,38.16-41.8c0,0,17.65-33.45,61.07-33.45,27.19,0,53.43,15.16,53.43,58.52Z" transform="translate(-25.6 -29.5)"/><path class="cls-4" d="M2175.71,147.34c-12.33,0-22.4,11-22.4,24.53s13.81,20.79,26.12,20.79h99.21c17.68,0,28.26-11.95,28.26-31.3s-14.32-35.05-32-35.05c0,0-14.79-28-51.2-28-22.8,0-44.8,12.7-44.8,49.07Z" transform="translate(-25.6 -29.5)"/><path class="cls-3" d="M330.17,276.36c-7.53,0-13.69,6.74-13.69,15s8.44,12.71,16,12.71h60.63c10.8,0,17.27-7.31,17.27-19.14s-8.76-21.41-19.56-21.41c0,0-9-17.14-31.29-17.14-13.93,0-27.38,7.77-27.38,30Z" transform="translate(-25.6 -29.5)"/><path class="cls-1" d="M1675.89,136.67a8.53,8.53,0,0,1-8.53-8.53A34.17,34.17,0,0,1,1701.49,94h68.27a8.53,8.53,0,0,0,0-17.06h-34.13a8.54,8.54,0,1,1,0-17.07h34.13a25.6,25.6,0,0,1,0,51.2h-68.27a17.09,17.09,0,0,0-17.07,17.07,8.52,8.52,0,0,1-8.53,8.53" transform="translate(-25.6 -29.5)"/><path class="cls-2" d="M1835.66,284.77a8.53,8.53,0,0,1-8.53-8.53,34.17,34.17,0,0,1,34.13-34.14h68.27a8.53,8.53,0,0,0,0-17.06H1895.4a8.54,8.54,0,1,1,0-17.07h34.13a25.6,25.6,0,1,1,0,51.2h-68.27a17.08,17.08,0,0,0-17.06,17.07,8.54,8.54,0,0,1-8.54,8.53" transform="translate(-25.6 -29.5)"/></svg>