<?xml version="1.0" encoding="utf-8"?>
<!-- Generator: Adobe Illustrator 22.0.1, SVG Export Plug-In . SVG Version: 6.00 Build 0)  -->
<svg version="1.1" id="Calque_1" xmlns="http://www.w3.org/2000/svg" xmlns:xlink="http://www.w3.org/1999/xlink" x="0px" y="0px"
	 viewBox="0 0 248.4 364" style="enable-background:new 0 0 248.4 364;" xml:space="preserve">
<style type="text/css">
	.st0{fill:#E84C3D;}
	.st1{opacity:0.3;}
	.st2{fill:#BA352F;}
	.st3{fill:#383B36;}
	.st4{fill:#FFFFFF;}
	.st5{fill:#202020;}
	.st6{fill:#0F3347;}
	.st7{fill:#FFCCC9;}
	.st8{fill:#E6E6E6;}
	.st9{fill:#4C4B4D;}
	.st10{fill:#363736;}
	.st11{fill:#DADBDA;}
	.st12{opacity:0.6;}
	.st13{fill:#888888;}
</style>
<g>
	<g>
		<path class="st0" d="M196.1,144.4l5.5-50.4c0,0,7.7-52.8-68.4-63.9c1.1-6.9-4.5-12.4-7.9-9.8s-1.3,9-1.3,9
			c-9.8-29-15.3-25.4-15.3-25.4s-9.5,0.3,4,25.7c-11.6-15.8-13.5-15.8-16.4-13.2s4.2,11.1,4.2,11.1C77.1,15.6,72.1,19,71,20.6
			c-1.1,1.6,0.8,9.2,17.2,13.5c-31.7,7.9-54.4,24-53.3,51.5s4.2,58.9,4.2,58.9s-30,50-33,136c0,4.5,3.8,4.8,5.2-1.7
			c1.9,7.3,7.6,12.1,6.2,0c5.7,7.6,6.7,6.2,4.8-5.5c5.7,7.1,10.9,6.4,2.8-9.1c5.2-0.5,9.7-5.3,3-6c-7-0.8-7.9-2.5-7.9-2.5
			c7.9-57.9,16.6-84.5,16.6-84.5s-1.5,82.9,0,85.5c16.4,9.7,32.2,28.1,83.4,28.1s77.4-34.1,77.4-34.1s7-46.3-0.7-79.5
			c10.7,20,24,59.4,25.5,80.4c-5.4,5.5-13.9,8.4-12.7,10.9c1.1,2.5,3.1,2.4,8.3,2.8c0,8.1-6.4,12-3,13.8c2.9,1.6,9.8-6.3,9.8-6.3
			s-1.9,11.9,2.6,8.2c4.5-3.7,4.5-9.5,4.5-9.5s1.7,8.4,4.7,7.7c3.6-0.8,1.1-11.6,1.1-11.6s5.4,6.4,5.6-1.3
			C243.4,258.6,211.9,164.4,196.1,144.4z"/>
	</g>
	<g class="st1">
		<path class="st2" d="M71.3,39.5c0,0-21.8,18-0.6,31.3c0,17.1,8.2,40.4,8.2,40.4s-5.4,8.8-0.6,19c-0.2,3.4,13.4,14.8,13.4,14.8
			s-7.3,12.7,4.6,21.4c-31.6,3.2-57.2-21.9-57.2-21.9s-2.8-40.3-4.2-58.9C33.4,67,46.5,49.2,71.3,39.5z"/>
	</g>
	<g>
		<path class="st3" d="M79.2,343.1c0,0-20.7,7.5-10.3,14.2s24-1.5,26.7-4.3c2.8-2.8,5.9-6.9-0.1-9.9S79.2,343.1,79.2,343.1z"/>
	</g>
	<g>
		<path class="st3" d="M137.8,343.1c0,0-5.4,5,0,9.6c5.4,4.6,16.8,8,23.5,5.5s8.8-10.9-8.6-15.1S137.8,343.1,137.8,343.1z"/>
	</g>
	<g>
		<g>
			<circle class="st4" cx="83.7" cy="87.2" r="24.4"/>
		</g>
		<g>
			<circle class="st5" cx="88.7" cy="85.7" r="11.5"/>
		</g>
		<g>
			<circle class="st4" cx="88.7" cy="83.5" r="5.6"/>
		</g>
	</g>
	<g>
		<g>
			<circle class="st4" cx="151.1" cy="85.7" r="24.4"/>
		</g>
		<g>
			<circle class="st5" cx="146.1" cy="84.2" r="11.5"/>
		</g>
		<g>
			<circle class="st4" cx="146.1" cy="82" r="5.6"/>
		</g>
	</g>
	<g>
		<g>
			<path class="st6" d="M68.3,127c1.5,8.6,12.2,21.2,23.4,24.8c-0.4-1.3,0.8-2.9,6.3-4.6c11.2-3.4,51.6-6.7,55.1-0.2
				c8.7-5.8,14.9-12.8,17.8-27.6C122.5,129,84.3,125.8,68.3,127z"/>
		</g>
		<g>
			<path class="st7" d="M98.1,147.2c-5.5,1.7-6.7,3.3-6.3,4.6c7.5,2.4,17.3,3.7,30.2,2.9c14-0.9,24.1-3.9,31.2-7.8
				C149.7,140.6,109.2,143.9,98.1,147.2z"/>
		</g>
		<g>
			<path class="st4" d="M170.9,119.4c-12.1,0.9-19.8,4.9-102.6,7.6c1.1,5.6,12.5,10.7,17.9,1.3c1.9,7.2,15.4,8.6,18-0.3
				c4.9,9.1,17.7,5,19.3-1.3c3.9,8.6,18.3,6.2,19.8-1.3c4.2,5.7,15.5,4.1,17.4-2.6C164,124.9,167.2,127,170.9,119.4z"/>
		</g>
	</g>
	<g>
		<path class="st8" d="M196.3,143.4c0,0-0.3,0.2-0.7,0.4l1,0C196.4,143.5,196.3,143.4,196.3,143.4z"/>
	</g>
	<g>
		<path class="st8" d="M197.3,144.9l-54.9,33.6l-14-6.9l-6.8,11.3l9.6,43.3L119.8,237l-13-11.4l6.8-43.8l-7-9.2l-13.5,7.5
			l-54.8-36.3c0,0-3.9,3.1-19.4,45.9c3,0.4,5.7,0.2,13,3.3c1.1-5.3,4-12.6,4-12.6s-3.5,53.5-0.9,56.7c3.5,3.4,101.3,25.4,165.8-0.3
			c3.5-15.6-0.3-57.3-0.3-57.3l4.1,12.9c0,0,4.9-2.1,14.2-2.4C210.2,167.3,200.2,149.6,197.3,144.9z"/>
	</g>
	<g>
		<path class="st4" d="M199,143.9l-2.5-0.1c0.2,0.3,0.4,0.6,0.7,1.1L199,143.9z"/>
	</g>
	<g>
		<path class="st4" d="M93.1,180.2l13.5-7.5l-1.8-2.3l5.4-3.8c-22.9-0.3-47.8-6.4-71.3-23.8l-0.6,1.2l0.8,0.5L93.1,180.2z"/>
	</g>
	<g>
		<path class="st4" d="M129.2,170.3l-0.8,1.4l14,6.9l54.9-33.6c-0.3-0.5-0.6-0.9-0.7-1.1l-1,0c-4.9,2.9-35.1,19.7-73.1,22.4
			L129.2,170.3z"/>
	</g>
	<g>
		<path class="st4" d="M128.4,171.7l0.8-1.4l-6.7-4.1c-4,0.3-8.1,0.4-12.2,0.4l-5.4,3.8l1.8,2.3"/>
	</g>
	<g>
		<g>
			<path class="st9" d="M56.2,242.6l-9.9,20.9c8.6,5.7,20.9,12.8,32.9,16c0,21.4,0,63.8,0,63.8h16.3v-60.1c0,0,21.4,2.8,42.3,0.3
				c0,30.7,0,59.7,0,59.7h14.9v-63c0,0,22.1-5.5,38.6-17.3l-9.4-20C156.2,248.8,116.9,253.7,56.2,242.6z"/>
		</g>
		<g>
			<path class="st9" d="M201,254.4c1.1-8.8,2.5-17.8-0.1-17.4c-4.2,1.6-9.2,3.4-15,5l8.7,18.6C196.9,258.7,199.1,256.6,201,254.4z"
				/>
		</g>
		<g>
			<path class="st9" d="M35.1,237.3c0,0-1.7,1-1.7,5.7c0,3.6-0.1,9.6,1.3,11.7c0.5,0.7,3.5,3.3,8.2,6.6l9.2-19.6
				C46.6,240.5,40.9,238.6,35.1,237.3z"/>
		</g>
		<g>
			<path class="st10" d="M52.1,241.6l-9.2,19.6c1,0.7,2.2,1.5,3.3,2.3l9.9-20.9C54.8,242.3,53.5,241.9,52.1,241.6z"/>
		</g>
		<g>
			<path class="st10" d="M185.9,242c-1.3,0.4-2.6,0.7-3.9,1l9.4,20c1.1-0.8,2.2-1.6,3.3-2.5L185.9,242z"/>
		</g>
		<g>
			<path class="st9" d="M194.6,260.6c2.3-1.9,4.5-3.9,6.4-6.1c1.8-0.8,2.5-17.8-0.1-17.4"/>
		</g>
	</g>
	<g>
		<polygon points="106.6,172.7 113.6,181.8 106.7,225.7 119.8,237 131.1,226.2 121.5,182.9 128.4,171.7 117.7,166.5 		"/>
	</g>
	<g>
		<path class="st2" d="M112,113.1c0,0,4.5-2.4,9.8,0c-1.9,1.9-4.9,2.3-4.9,2.3S113.4,114.8,112,113.1z"/>
		<path class="st2" d="M116.9,115.9C116.9,115.9,116.8,115.9,116.9,115.9c-0.2,0-3.8-0.7-5.3-2.5c-0.1-0.1-0.1-0.3-0.1-0.4
			s0.1-0.3,0.3-0.3c0.2-0.1,4.8-2.5,10.3,0c0.1,0.1,0.3,0.2,0.3,0.4c0,0.2,0,0.3-0.1,0.4C120.2,115.5,117.1,115.9,116.9,115.9
			C116.9,115.9,116.9,115.9,116.9,115.9z M112.9,113.3c1.3,1,3.6,1.5,4,1.6c0.4-0.1,2.4-0.4,4-1.6
			C117.3,111.9,114.2,112.8,112.9,113.3z"/>
	</g>
	<g>
		<path class="st2" d="M66.1,61.4c-0.6,0-1.2-0.3-1.6-0.7c-0.7-0.9-0.6-2.1,0.3-2.8c0.5-0.4,13.4-10.6,32.9-2.2c1,0.4,1.5,1.6,1,2.6
			c-0.4,1-1.6,1.5-2.6,1c-17.3-7.5-28.6,1.5-28.8,1.6C66.9,61.2,66.5,61.4,66.1,61.4z"/>
	</g>
	<g>
		<path class="st2" d="M135.8,59c-0.7,0-1.4-0.4-1.8-1.1c-0.5-1-0.1-2.2,0.9-2.7c18.9-9.7,32.4-0.4,32.9,0c0.9,0.6,1.1,1.9,0.5,2.8
			c-0.6,0.9-1.9,1.1-2.8,0.5c-0.5-0.4-12.2-8.2-28.8,0.3C136.4,58.9,136.1,59,135.8,59z"/>
	</g>
	<g class="st1">
		<path class="st11" d="M65.6,77.3c-1.9,11.6,0.7,29.3,18.1,34.3c-20-0.4-29.5-20.7-21.8-35.6C62.9,74.1,66,75.1,65.6,77.3z"/>
	</g>
	<g class="st1">
		<path class="st11" d="M132.6,85.7c0.8,10,5.5,20.8,18.5,24.5c-15.2-0.3-24.3-12.1-24.4-24.3C126.7,82,132.3,81.9,132.6,85.7z"/>
	</g>
	<g class="st1">
		<path class="st11" d="M72.6,126.7c0,0-1.5,0.1-4.3,0.3c0.8,4,6.1,6.7,10,6.5C72.8,131.5,72.6,126.7,72.6,126.7z"/>
	</g>
	<g>
		<g>
			<circle class="st9" cx="71" cy="198.6" r="17.3"/>
		</g>
		<g>
			<g>
				<path class="st4" d="M72.7,192.6l3.1,0l3.1,0l-0.8-3l-0.8-3l-0.9,1.2c-2.7-2-4.6-3.2-6.7-2.8c-2.2,0.4-3.6,2.1-6.1,5.3l3.6,2.8
					c1-1.3,1.7-2.3,2.4-2.9c0.6-0.6,0.8-0.7,0.9-0.7c0,0,0.3,0,1,0.4c0.6,0.3,1.3,0.8,2.1,1.5L72.7,192.6z"/>
			</g>
			<g>
				<polygon class="st4" points="80.8,196.9 81.5,196.7 83,196.2 				"/>
			</g>
			<g>
				<path class="st4" d="M83,196.2l-1.5,0.5l-2.8,0.9c0.5,1.5,0.9,2.7,1.1,3.6c0.2,0.8,0.1,1.1,0.1,1.1c0,0-0.2,0.2-0.9,0.6
					c-0.6,0.3-1.4,0.6-2.4,0.9l-0.4-1.4l-1.8,2.5l-1.8,2.5l2.9,1.1l2.9,1.1l-0.5-1.4c3.2-1.1,5.2-1.9,6.1-3.9
					C84.9,202.2,84.2,200.1,83,196.2z"/>
			</g>
			<g>
				<path class="st4" d="M63.2,202.7c0,0-0.1-0.3,0.1-1.1c0.2-0.7,0.4-1.5,0.8-2.5l1.4,0.5l-0.8-3l-0.8-3l-2.6,1.6l-2.6,1.6l1.4,0.6
					c-1.2,3.1-1.8,5.2-0.8,7.2c1,2,3,2.8,6.8,4.3l1.7-4.2c-1.5-0.6-2.6-1-3.5-1.5C63.4,202.9,63.3,202.7,63.2,202.7z"/>
			</g>
		</g>
	</g>
	<g class="st12">
		<g>
			<path class="st13" d="M119.8,240.2c-0.5,0-1-0.4-1-1l0-1c0-0.6,0.4-1,1-1c0.6,0,1,0.4,1,1l0,1
				C120.8,239.7,120.4,240.2,119.8,240.2C119.8,240.2,119.8,240.2,119.8,240.2z"/>
		</g>
		<g>
			<path class="st13" d="M119.9,244.6c-0.5,0-1-0.4-1-1l0-1.5c0-0.6,0.4-1,1-1c0,0,0,0,0,0c0.5,0,1,0.4,1,1l0,1.5
				C120.9,244.2,120.5,244.6,119.9,244.6C119.9,244.6,119.9,244.6,119.9,244.6z"/>
		</g>
		<g>
			<path class="st13" d="M120,248.6c-0.5,0-1-0.4-1-1l0-1c0-0.6,0.4-1,1-1c0.6,0,1,0.4,1,1l0,1C121,248.1,120.6,248.6,120,248.6
				C120,248.6,120,248.6,120,248.6z"/>
		</g>
	</g>
</g>
</svg>
